<svg width="38" height="44" viewBox="0 0 38 44" fill="none" xmlns="http://www.w3.org/2000/svg">
<path d="M4.76138 27.1616C4.39558 26.2575 3.91961 25.3263 3.63487 24.3432C1.85364 18.2035 3.08616 12.7289 7.49454 8.08354C10.1633 5.27348 13.52 3.72504 17.39 3.34469C25.1863 2.57566 32.2571 7.3644 34.531 14.8821C34.8199 15.8382 34.6661 16.4451 33.9054 17.0541C32.3839 18.2721 30.6547 19.0515 28.8256 19.6459C26.2047 20.4981 23.4944 20.8743 20.7696 21.2048C15.3864 21.8574 10.3316 23.4495 5.81516 26.5422C5.51794 26.7459 5.22696 26.96 4.93182 27.1678C4.92142 27.1741 4.90272 27.1678 4.76138 27.1616ZM5.49715 21.0821C5.48261 15.3727 7.51948 10.825 12.4599 7.97754C17.3776 5.14462 22.3326 5.57278 27.2439 8.44104C23.5027 4.87858 17.0097 3.82065 11.639 7.07965C6.0812 10.455 4.38311 16.6613 5.49715 21.0821ZM9.15938 16.1417C9.14275 16.1729 9.1282 16.2061 9.11157 16.2373C9.6395 16.6239 10.1591 17.0229 10.6995 17.3908C10.9011 17.528 10.9323 17.6527 10.8554 17.8709C10.6392 18.4903 10.4439 19.118 10.2422 19.7415C10.2651 19.7603 10.288 19.779 10.3108 19.7977C10.9261 19.355 11.5413 18.9122 12.1586 18.4654C12.7883 18.9185 13.3952 19.355 14.1144 19.8746C13.8858 19.1679 13.7133 18.5839 13.5054 18.0102C13.3932 17.7005 13.414 17.5072 13.7216 17.3118C14.2308 16.9897 14.7026 16.6052 15.191 16.2477C14.5696 16.1417 13.9876 16.123 13.4077 16.1479C13.0419 16.1645 12.8403 16.0752 12.7447 15.6823C12.6034 15.1108 12.3851 14.5558 12.2001 13.9946C11.9133 14.5828 11.7096 15.1627 11.5392 15.7509C11.4561 16.0419 11.3293 16.1645 11.005 16.15C10.3961 16.1188 9.77667 16.1417 9.15938 16.1417ZM20.0837 13.1508C20.1086 13.1279 20.1356 13.1051 20.1606 13.0822C19.9673 12.4836 19.7802 11.885 19.5745 11.2906C19.4872 11.0433 19.5204 10.8874 19.7532 10.7315C20.2791 10.3761 20.782 9.9874 21.2954 9.6112C20.6469 9.51559 20.0338 9.49481 19.4248 9.52391C19.0902 9.54053 18.953 9.4179 18.8657 9.10614C18.7015 8.52002 18.4916 7.94636 18.3025 7.36856C18.0073 7.97962 17.7974 8.58445 17.6145 9.19759C17.5417 9.44077 17.4274 9.52598 17.1697 9.51975C16.5316 9.50104 15.8915 9.51351 15.2513 9.51351C15.5402 9.85022 15.8582 10.0872 16.1783 10.322C17.0429 10.956 17.0429 10.9539 16.7041 11.9827C16.5815 12.3506 16.4672 12.7206 16.3487 13.0905C16.9619 12.7663 17.4794 12.4046 17.9782 12.0222C18.1757 11.8705 18.3149 11.8538 18.5249 12.018C19.0278 12.4129 19.5599 12.7746 20.0837 13.1508ZM28.5887 17.2142C28.6157 17.1934 28.6427 17.1726 28.6677 17.1518C28.4806 16.5678 28.3102 15.9775 28.0961 15.4038C27.9818 15.0941 28.0483 14.9258 28.3226 14.747C28.8298 14.4145 29.3058 14.0362 29.7942 13.6766C29.179 13.5852 28.5949 13.5499 28.015 13.5977C27.5952 13.633 27.4372 13.4646 27.3375 13.0926C27.1857 12.5335 26.9862 11.9889 26.8075 11.4382C26.5102 12.0347 26.3066 12.627 26.1299 13.2256C26.0509 13.4958 25.9304 13.6081 25.629 13.5956C25.0075 13.5686 24.384 13.5873 23.7605 13.5873C23.7521 13.6226 23.7418 13.6579 23.7334 13.6933C24.3341 14.1318 24.9348 14.5683 25.5375 15.0089C25.3006 15.7489 25.074 16.4597 24.8038 17.3056C25.4004 16.8754 25.9096 16.5553 26.3585 16.1708C26.6724 15.9027 26.8844 15.9629 27.1691 16.1874C27.6305 16.5428 28.1148 16.8712 28.5887 17.2142Z" fill="#1239C4"/>
<path d="M34.8074 17.8398C34.6308 19.2179 34.0654 20.5647 33.0345 21.7058C31.7002 23.1835 30.0561 24.256 28.3081 25.1477C25.76 26.4467 23.1515 27.6293 20.5867 28.8972C16.6605 30.8384 13.6634 33.7212 11.799 37.7202C10.9926 39.4494 10.473 41.2639 10.2776 43.2717C9.72683 42.511 9.228 41.823 8.73126 41.133C7.52368 39.4598 6.32649 37.7784 5.09813 36.1177C4.85703 35.7914 4.87366 35.5607 5.07319 35.2385C6.1519 33.5051 7.60889 32.1437 9.23632 30.9507C12.4247 28.6166 16.0079 27.1014 19.772 25.9957C22.2848 25.2578 24.8205 24.5865 27.2315 23.5431C29.4263 22.5932 31.5505 21.5125 33.2548 19.7915C33.8638 19.1784 34.3398 18.4384 34.8074 17.8398Z" fill="#EA2D53"/>
<path d="M4.29999 30.5619C-1.73373 23.6137 -1.54044 12.4774 5.6593 5.40024C12.8507 -1.67063 24.6251 -1.8182 32.0015 5.07809C39.4091 12.0035 39.9349 23.3144 33.6955 30.5681C36.5367 26.1099 37.63 21.3004 36.4743 16.1042C35.3146 10.8832 32.3777 6.90296 27.7345 4.24255C20.9629 0.362091 12.3581 1.4803 6.71515 6.83645C0.947462 12.3132 -1.26193 22.1795 4.29999 30.5619Z" fill="#1239C4"/>
<path d="M18.0988 37.2316C18.5 35.8536 19.111 34.6522 19.853 33.5195C21.4077 31.148 23.4591 29.3293 26.0031 28.0677C28.0442 27.0555 30.0478 25.983 31.8228 24.5343C33.0782 23.5097 34.0821 22.2875 34.7867 20.762C34.6058 23.2603 32.7685 28.0532 29.0792 31.5325C25.9844 34.4527 22.2848 36.209 18.0988 37.2316Z" fill="#EA2D53"/>
<path d="M5.49723 21.082C4.38318 16.6612 6.08128 10.4549 11.639 7.07953C17.0097 3.81845 23.5028 4.87846 27.2461 8.44092C22.3347 5.57266 17.3776 5.1445 12.4621 7.97742C7.52164 10.827 5.48268 15.3725 5.49723 21.082Z" fill="white"/>
<path d="M9.15937 16.1417C9.77667 16.1417 10.396 16.1209 11.0113 16.15C11.3334 16.1645 11.4602 16.0419 11.5454 15.7509C11.7159 15.1627 11.9195 14.5828 12.2064 13.9946C12.3914 14.5558 12.6096 15.1087 12.7509 15.6823C12.8486 16.0752 13.0481 16.1645 13.4139 16.1479C13.9938 16.1209 14.5758 16.1417 15.1973 16.2477C14.7088 16.6052 14.237 16.9897 13.7278 17.3118C13.4181 17.5072 13.3973 17.7005 13.5116 18.0102C13.7195 18.5818 13.892 19.1679 14.1206 19.8746C13.3994 19.3549 12.7925 18.9185 12.1648 18.4654C11.5454 18.9122 10.9323 19.3549 10.3171 19.7977C10.2942 19.7789 10.2713 19.7602 10.2485 19.7415C10.4522 19.118 10.6475 18.4903 10.8616 17.8709C10.9364 17.6527 10.9053 17.528 10.7057 17.3908C10.1653 17.0229 9.64572 16.6239 9.1178 16.2373C9.12819 16.2061 9.14274 16.1728 9.15937 16.1417Z" fill="white"/>
<path d="M20.0837 13.1509C19.562 12.7747 19.03 12.413 18.5228 12.0181C18.3129 11.8539 18.1736 11.8706 17.9762 12.0223C17.4753 12.4047 16.9598 12.7664 16.3467 13.0906C16.4652 12.7207 16.5795 12.3507 16.7021 11.9828C17.043 10.954 17.043 10.9561 16.1763 10.3221C15.8562 10.0873 15.5382 9.85032 15.2493 9.51361C15.8894 9.51361 16.5296 9.50114 17.1677 9.51984C17.4233 9.52816 17.5397 9.44086 17.6125 9.19768C17.7954 8.58454 18.0053 7.97972 18.3004 7.36865C18.4916 7.94646 18.6995 8.52011 18.8637 9.10623C18.951 9.41592 19.0861 9.54063 19.4228 9.524C20.0338 9.4949 20.6449 9.51569 21.2934 9.6113C20.78 9.98749 20.277 10.3762 19.7512 10.7316C19.5205 10.8875 19.4872 11.0433 19.5724 11.2907C19.7803 11.883 19.9653 12.4837 20.1586 13.0823C20.1336 13.1052 20.1087 13.128 20.0837 13.1509Z" fill="white"/>
<path d="M28.5887 17.2142C28.1148 16.8713 27.6305 16.5429 27.1733 16.1833C26.8885 15.9589 26.6765 15.8986 26.3627 16.1667C25.9117 16.5533 25.4045 16.8713 24.808 17.3015C25.0782 16.4577 25.3048 15.7448 25.5417 15.0049C24.939 14.5642 24.3383 14.1257 23.7376 13.6892C23.7459 13.6539 23.7563 13.6185 23.7646 13.5832C24.3882 13.5832 25.0117 13.5645 25.6332 13.5915C25.9345 13.6061 26.0551 13.4917 26.1341 13.2215C26.3107 12.6209 26.5144 12.0306 26.8116 11.4341C26.9904 11.9849 27.1899 12.5294 27.3416 13.0885C27.4414 13.4606 27.5994 13.6289 28.0192 13.5936C28.597 13.5458 29.1811 13.5811 29.7984 13.6726C29.3099 14.0321 28.834 14.4125 28.3268 14.743C28.0504 14.9238 27.9839 15.0901 28.1003 15.3998C28.3123 15.9734 28.4827 16.5637 28.6718 17.1477C28.6407 17.1727 28.6157 17.1935 28.5887 17.2142Z" fill="white"/>
</svg>
